<?xml version="1.0" encoding="UTF-8"?>
<svg version="1.1" viewBox="0 0 2048 1393" width="1280" height="1280" xmlns="http://www.w3.org/2000/svg">
<path transform="translate(0)" d="m0 0h2048v1393h-2048z"/>
<path transform="translate(1396,338)" d="m0 0h59l40 4 25 4 36 9 21 8 17 8 19 12 10 8 10 9 7 8 10 14 7 15 5 17 2 13v21l-3 19-7 24-14 29-15 24-10 13-9 11-9 10-7 8-26 26-11 9-11 10-28 22-19 14-21 14-20 13-28 17-21 12-29 16-29 15-14 7-1 42-4 8-5 4-4 2-6 1 10 4 8 7 14 19 10 14 39 54 14 19 10 14 39 54 14 19 10 14 13 18 7 10 3 8v11l-7 14-12 17-14 20-7 8-10 6-3 1h-356l-3-3-4-12-6-6h-187l-6 5-4 12-3 4h-357l-8-4-10-9-16-23-12-18-4-9-1-5v-7l3-10 7-12 12-16 13-18 14-19 10-14 14-19 26-36 9-12 2-3-10-2-46-7-31-7-29-8-28-11-25-12-19-12-10-8-10-9-10-10-10-13-8-13-7-15-5-19-1-7v-27l3-16 8-24 8-17 14-21 8-10 11-13 14-15 8-7 11-10 14-11 13-10 23-16 22-14 22-13 27-14 19-10 30-14 31-13 2 1-12 9-15 10-17 12-18 13-28 22-33 27-15 14-10 9-20 20-7 8-11 13-14 19-12 19-10 21-6 20-1 5v21l4 14 6 11 11 12 15 10 23 11 33 11 40 8 33 4 28 2h85l49-3 39-4 60-8 57-10 62-12 44-10 73-19 44-13 59-19 57-21 21-8 34-14 42-18 30-14 29-14 23-12 21-12 23-13 18-11 33-22 17-12 18-14 13-11 8-7 10-9 10-10 7-8 12-15 10-15 10-21 4-14v-21l-3-12-7-14-11-14-10-9-15-10-18-10-22-10-36-12-43-11-36-7-36-5-15-2v-2l20-2z" fill="#fff"/>
<path transform="translate(986,197)" d="m0 0 12 1 14 5 37 17 29 13 35 16 36 16 39 18 36 16 39 18 36 16 26 12 66 30 10 6 6 5 7 10 4 10 1 6v11l-3 12-5 10-9 10-10 6-14 4h-46v180l-31 14-9 3-1-2-1-176-4-8-8-5-4-1h-272l-28 2-25 4-25 6-23 7-21 9-17 8-22 12-19 13-13 10-14 12-17 16-13 14-8 10-10 13-14 21-12 22-10 21-11 30-7 27-5 28-2 23v16l1 9 1 4-14 1h-29v-342h-43l-11-2-13-7-7-6-7-10-5-12-1-5v-13l4-13 7-11 8-7 17-9 36-16 28-13 29-13 35-16 29-13 35-16 29-13 35-16 29-13 33-15 60-27z" fill="#fff"/>
<path transform="translate(987,238)" d="m0 0 5 1 36 16 39 18 36 16 28 13 36 16 39 18 36 16 39 18 29 13 35 16 20 9 12 6 2 5-2 5-5 2h-768l-5-5v-5l6-5 36-16 41-19 29-13 33-15 82-37 35-16 36-16 28-13 36-16z"/>
<path transform="translate(875,1009)" d="m0 0h227l6 3 8 16 19 43 8 20-1 8-4 5-5 2h-288l-6-3-4-5-1-7 11-26 18-41 5-10 4-4z"/>
<path transform="translate(915,559)" d="m0 0h44l12 1 5 4 3 6v55l-4 6-5 4h-57l-8-7-1-2v-57l4-6 4-3z" fill="#fff"/>
<path transform="translate(1010,559)" d="m0 0h44l11 1 6 5 2 4v57l-3 5-7 4h-56l-6-5-3-6v-53l4-8z" fill="#fff"/>
<path transform="translate(915,656)" d="m0 0h52l7 3 5 7v56l-4 6-5 3-4 1h-49l-7-3-5-5-1-3v-54l4-7z" fill="#fff"/>
<path transform="translate(1009,656)" d="m0 0h52l7 3 4 4 1 3v57l-5 6-9 3h-48l-7-3-5-6-1-4v-52l4-6 5-4z" fill="#fff"/>
<path transform="translate(1272,883)" d="m0 0h11l9 3 5 4 1 7-7 6-11 2-12-1-8-4-2-3v-6l7-6z"/>
</svg>
